<svg width="21" height="21" viewBox="0 0 21 21" fill="#DCDCFE" xmlns="http://www.w3.org/2000/svg">
<path d="M2.88932 14.7333C1.77113 12.8483 1.37953 10.62 1.78805 8.46668C2.19658 6.31339 3.37712 4.38329 5.10801 3.03882C6.8389 1.69435 9.00106 1.02799 11.1885 1.16488C13.3759 1.30176 15.4381 2.23247 16.9879 3.78223C18.5377 5.332 19.4684 7.39421 19.6053 9.58164C19.7422 11.7691 19.0758 13.9312 17.7314 15.6621C16.3869 17.393 14.4568 18.5736 12.3035 18.9821C10.1502 19.3906 7.92186 18.999 6.03686 17.8809L6.03688 17.8808L2.92845 18.7689C2.79984 18.8056 2.66375 18.8073 2.53428 18.7738C2.4048 18.7402 2.28665 18.6727 2.19207 18.5781C2.0975 18.4835 2.02993 18.3654 1.99638 18.2359C1.96283 18.1064 1.96452 17.9703 2.00126 17.8417L2.88939 14.7333L2.88932 14.7333Z" stroke="#514EFC" stroke-width="2" stroke-linecap="round" stroke-linejoin="round"/>
</svg>




