<svg width="20" height="20" viewBox="0 0 20 20" fill="#DCDCFE" xmlns="http://www.w3.org/2000/svg">
<path d="M6.30002 9.8412C7.07799 11.4317 8.36724 12.7151 9.96127 13.4858C10.0779 13.5411 10.2069 13.565 10.3356 13.5553C10.4643 13.5456 10.5882 13.5025 10.6952 13.4303L13.0423 11.8652C13.1461 11.796 13.2655 11.7537 13.3898 11.7423C13.514 11.7309 13.6392 11.7507 13.7538 11.7998L18.1448 13.6817C18.294 13.745 18.4185 13.8552 18.4996 13.9954C18.5808 14.1357 18.6141 14.2986 18.5947 14.4595C18.4559 15.5455 17.926 16.5437 17.1042 17.2671C16.2825 17.9906 15.2252 18.3897 14.1304 18.3898C10.7489 18.3898 7.50585 17.0465 5.11476 14.6554C2.72367 12.2643 1.38037 9.02128 1.38037 5.63977C1.38043 4.54493 1.77955 3.48766 2.50301 2.6659C3.22647 1.84415 4.22465 1.31428 5.31065 1.17549C5.47154 1.15602 5.6344 1.18936 5.77469 1.2705C5.91498 1.35163 6.0251 1.47616 6.08847 1.62532L7.97195 6.02012C8.02067 6.1338 8.04052 6.25776 8.02974 6.38096C8.01895 6.50417 7.97787 6.62279 7.91014 6.72627L6.35048 9.10937C6.27949 9.21658 6.23753 9.34036 6.22868 9.46863C6.21984 9.5969 6.24442 9.72527 6.30002 9.8412V9.8412Z" stroke="#514EFC" stroke-width="2" stroke-linecap="round" stroke-linejoin="round"/>
</svg>
